<?xml version="1.0" encoding="UTF-8"?>
<!DOCTYPE svg PUBLIC "-//W3C//DTD SVG 1.1//EN" "http://www.w3.org/Graphics/SVG/1.1/DTD/svg11.dtd">
<svg xmlns="http://www.w3.org/2000/svg" version="1.1" width="526px" height="436px" style="shape-rendering:geometricPrecision; text-rendering:geometricPrecision; image-rendering:optimizeQuality; fill-rule:evenodd; clip-rule:evenodd" xmlns:xlink="http://www.w3.org/1999/xlink">
<g><path style="opacity:1" fill="#fefefe" d="M -0.5,-0.5 C 174.833,-0.5 350.167,-0.5 525.5,-0.5C 525.5,144.833 525.5,290.167 525.5,435.5C 350.167,435.5 174.833,435.5 -0.5,435.5C -0.5,290.167 -0.5,144.833 -0.5,-0.5 Z"/></g>
<g><path style="opacity:1" fill="#14870d" d="M 176.5,30.5 C 176.082,31.2216 175.416,31.7216 174.5,32C 182.167,32.6667 189.833,32.6667 197.5,32C 195.942,31.79 194.609,31.29 193.5,30.5C 205.543,30.5034 217.543,31.1701 229.5,32.5C 226.695,33.3195 223.695,33.8195 220.5,34C 225.519,34.4983 230.519,34.3316 235.5,33.5C 239.269,33.244 242.936,33.5773 246.5,34.5C 244.708,35.3091 242.708,35.8091 240.5,36C 246.158,37.5026 251.825,37.6693 257.5,36.5C 271.126,38.24 284.459,41.24 297.5,45.5C 296.737,46.2679 295.737,46.7679 294.5,47C 299.871,48.7346 305.204,50.568 310.5,52.5C 311.417,51.8728 312.417,51.5394 313.5,51.5C 316.598,52.2163 319.598,53.2163 322.5,54.5C 322.082,55.2216 321.416,55.7216 320.5,56C 349.827,68.0918 375.494,84.7585 397.5,106C 398.448,106.483 399.448,106.649 400.5,106.5C 403.2,108.234 405.2,110.568 406.5,113.5C 406.389,114.117 406.056,114.617 405.5,115C 408.784,118.405 411.95,121.905 415,125.5C 415.383,124.944 415.883,124.611 416.5,124.5C 416.586,125.496 416.252,126.329 415.5,127C 419.362,131.229 422.862,135.729 426,140.5C 426.383,139.944 426.883,139.611 427.5,139.5C 426.811,142.682 427.811,145.515 430.5,148C 431.448,148.483 432.448,148.649 433.5,148.5C 433.5,148.833 433.5,149.167 433.5,149.5C 433.196,150.15 432.863,150.817 432.5,151.5C 433.919,153.336 435.086,155.336 436,157.5C 436.77,158.598 437.603,158.598 438.5,157.5C 439.338,157.842 439.672,158.508 439.5,159.5C 439.586,160.496 439.252,161.329 438.5,162C 441.128,166.755 443.628,171.588 446,176.5C 446.278,175.584 446.778,174.918 447.5,174.5C 448.11,175.391 448.443,176.391 448.5,177.5C 447.388,180.342 447.888,183.008 450,185.5C 450.278,184.584 450.778,183.918 451.5,183.5C 451.5,183.833 451.5,184.167 451.5,184.5C 450.166,187.757 450.832,189.757 453.5,190.5C 452.339,192.224 452.505,193.89 454,195.5C 454.278,194.584 454.778,193.918 455.5,193.5C 454.707,198.009 455.541,202.342 458,206.5C 458.278,205.584 458.778,204.918 459.5,204.5C 458.701,209.657 459.535,214.657 462,219.5C 462.232,218.263 462.732,217.263 463.5,216.5C 462.189,219.92 462.356,223.253 464,226.5C 464.333,225.833 464.667,225.167 465,224.5C 465.232,225.737 465.732,226.737 466.5,227.5C 467.768,229.905 468.435,232.572 468.5,235.5C 467.992,238.176 467.825,240.843 468,243.5C 468.333,244.833 468.667,246.167 469,247.5C 469.21,245.942 469.71,244.609 470.5,243.5C 472.761,250.988 474.094,258.654 474.5,266.5C 474.215,269.829 474.882,272.829 476.5,275.5C 477.88,283.769 478.546,292.102 478.5,300.5C 479.265,317.155 479.599,333.822 479.5,350.5C 479.705,364.637 478.538,378.637 476,392.5C 474.991,390.975 474.491,389.308 474.5,387.5C 475.265,383.95 474.431,380.617 472,377.5C 471.722,378.416 471.222,379.082 470.5,379.5C 470.5,379.167 470.5,378.833 470.5,378.5C 471.261,374.945 470.428,371.612 468,368.5C 467.722,369.416 467.222,370.082 466.5,370.5C 464.354,365.385 462.02,360.385 459.5,355.5C 460.329,353.067 459.829,350.733 458,348.5C 457.23,347.402 456.397,347.402 455.5,348.5C 453.914,346.33 452.58,343.996 451.5,341.5C 451.791,337.374 450.291,333.707 447,330.5C 446.617,331.056 446.117,331.389 445.5,331.5C 445.414,330.504 445.748,329.671 446.5,329C 443.036,323.238 439.203,317.738 435,312.5C 434.617,313.056 434.117,313.389 433.5,313.5C 433.5,313.167 433.5,312.833 433.5,312.5C 433.558,309.94 432.391,307.606 430,305.5C 429.617,306.056 429.117,306.389 428.5,306.5C 429.698,303.791 428.698,301.957 425.5,301C 425.833,300.667 426.167,300.333 426.5,300C 422.667,295.5 418.833,291 415,286.5C 414.617,287.056 414.117,287.389 413.5,287.5C 413.5,287.167 413.5,286.833 413.5,286.5C 413.611,285.883 413.944,285.383 414.5,285C 365.111,228.781 306.444,184.948 238.5,153.5C 237.583,154.127 236.583,154.461 235.5,154.5C 235.611,153.883 235.944,153.383 236.5,153C 233.388,150.572 230.055,149.739 226.5,150.5C 226.611,149.883 226.944,149.383 227.5,149C 225.008,146.888 222.342,146.388 219.5,147.5C 219.167,147.5 218.833,147.5 218.5,147.5C 218.918,146.778 219.584,146.278 220.5,146C 217.044,143.555 213.377,142.722 209.5,143.5C 209.611,142.883 209.944,142.383 210.5,142C 206.979,139.385 203.312,139.051 199.5,141C 200.078,142.417 201.078,143.25 202.5,143.5C 202.833,143.5 203.167,143.5 203.5,143.5C 203.082,144.222 202.416,144.722 201.5,145C 252.282,177.754 298.949,215.754 341.5,259C 342.437,259.692 343.103,259.525 343.5,258.5C 344.167,258.5 344.5,258.833 344.5,259.5C 344.351,260.552 344.517,261.552 345,262.5C 356.742,274.238 367.742,286.571 378,299.5C 379.451,301.464 381.284,302.797 383.5,303.5C 385.587,304.585 386.92,306.251 387.5,308.5C 387.389,309.117 387.056,309.617 386.5,310C 388.549,312.593 390.715,315.093 393,317.5C 393.383,316.944 393.883,316.611 394.5,316.5C 395.925,317.922 396.925,319.589 397.5,321.5C 397.389,322.117 397.056,322.617 396.5,323C 399.788,327.077 402.955,331.244 406,335.5C 406.383,334.944 406.883,334.611 407.5,334.5C 407.586,335.496 407.252,336.329 406.5,337C 409.457,341.08 412.29,345.247 415,349.5C 415.77,350.598 416.603,350.598 417.5,349.5C 415.923,351.802 416.589,353.302 419.5,354C 419.167,354.333 418.833,354.667 418.5,355C 419.667,356.833 420.833,358.667 422,360.5C 422.77,361.598 423.603,361.598 424.5,360.5C 423.65,362.906 424.15,365.24 426,367.5C 426.77,368.598 427.603,368.598 428.5,367.5C 430.083,369.663 431.416,371.996 432.5,374.5C 432.586,375.496 432.252,376.329 431.5,377C 435.128,383.755 438.628,390.588 442,397.5C 442.278,396.584 442.778,395.918 443.5,395.5C 444.11,396.391 444.443,397.391 444.5,398.5C 443.587,400.086 443.587,401.586 444.5,403C 442.913,403.862 441.246,404.529 439.5,405C 440.737,405.232 441.737,405.732 442.5,406.5C 439.598,407.578 436.598,408.244 433.5,408.5C 429.439,407.67 425.439,408.17 421.5,410C 422.737,410.232 423.737,410.732 424.5,411.5C 422.621,412.341 420.621,412.675 418.5,412.5C 415.153,411.327 411.82,411.493 408.5,413C 410.058,413.21 411.391,413.71 412.5,414.5C 410.236,415.219 407.903,415.552 405.5,415.5C 401.814,414.264 398.148,414.431 394.5,416C 396.058,416.21 397.391,416.71 398.5,417.5C 358.699,425.552 318.699,426.552 278.5,420.5C 278.082,419.778 277.416,419.278 276.5,419C 277.5,418.667 278.5,418.333 279.5,418C 276.174,417.828 272.841,417.995 269.5,418.5C 270.609,417.71 271.942,417.21 273.5,417C 271.5,416.5 269.5,416 267.5,415.5C 265.547,416.156 263.547,416.489 261.5,416.5C 256.471,416.08 251.805,414.746 247.5,412.5C 247.918,411.778 248.584,411.278 249.5,411C 244.941,408.737 240.274,407.903 235.5,408.5C 230.927,407.421 226.593,405.754 222.5,403.5C 222.918,402.778 223.584,402.278 224.5,402C 180.69,382.535 144.19,353.701 115,315.5C 114.617,316.056 114.117,316.389 113.5,316.5C 113.5,316.167 113.5,315.833 113.5,315.5C 113.611,314.883 113.944,314.383 114.5,314C 110.872,310.173 108.039,306.339 106,302.5C 105.047,300.627 103.88,300.294 102.5,301.5C 102.414,300.504 102.748,299.671 103.5,299C 100.543,294.92 97.7097,290.753 95,286.5C 94.2303,285.402 93.397,285.402 92.5,286.5C 93.1363,283.059 91.9696,280.059 89,277.5C 88.6174,278.056 88.1174,278.389 87.5,278.5C 88.3501,276.094 87.8501,273.76 86,271.5C 84.6667,269.5 83.3333,267.5 82,265.5C 81.6174,266.056 81.1174,266.389 80.5,266.5C 80.1667,265.833 79.8333,265.167 79.5,264.5C 79.4142,263.504 79.7476,262.671 80.5,262C 78.8726,259.246 77.3726,256.412 76,253.5C 75.2303,252.402 74.397,252.402 73.5,253.5C 70.8333,248.167 68.1667,242.833 65.5,237.5C 65.5394,236.417 65.8728,235.417 66.5,234.5C 65,231.5 63.5,228.5 62,225.5C 61.7216,226.416 61.2216,227.082 60.5,227.5C 60.5,227.167 60.5,226.833 60.5,226.5C 61.624,222.062 60.2907,219.395 56.5,218.5C 55.6373,216.579 54.9707,214.579 54.5,212.5C 54.9857,208.715 54.1524,205.048 52,201.5C 51.7216,202.416 51.2216,203.082 50.5,203.5C 49.3702,201.685 48.7036,199.685 48.5,197.5C 49.428,194.392 48.928,191.392 47,188.5C 46.7216,189.416 46.2216,190.082 45.5,190.5C 45.5,190.167 45.5,189.833 45.5,189.5C 46.0838,185.363 45.2505,181.363 43,177.5C 42.7216,178.416 42.2216,179.082 41.5,179.5C 39.7679,175.303 38.4345,170.969 37.5,166.5C 38.4336,162.743 37.9336,159.077 36,155.5C 35.7679,156.737 35.2679,157.737 34.5,158.5C 29.8806,144.024 25.8806,129.358 22.5,114.5C 23.0081,111.824 23.1747,109.157 23,106.5C 22.6667,105.167 22.3333,103.833 22,102.5C 21.79,104.058 21.29,105.391 20.5,106.5C 17.0623,91.6442 14.3957,76.6442 12.5,61.5C 12.523,59.0733 13.023,56.74 14,54.5C 14.7247,55.0585 15.5581,55.3918 16.5,55.5C 19.8333,54.6667 23.1667,53.8333 26.5,53C 24.9419,52.79 23.6085,52.29 22.5,51.5C 24.2646,50.5386 26.2646,50.2053 28.5,50.5C 32.2031,51.8302 35.8697,51.6636 39.5,50C 37.9419,49.79 36.6085,49.29 35.5,48.5C 36.9187,47.5489 38.5853,47.2155 40.5,47.5C 42.8845,47.4433 45.2178,47.7766 47.5,48.5C 49.8193,47.9361 52.1526,47.4361 54.5,47C 52.6183,46.8019 50.9516,46.3019 49.5,45.5C 50.1667,45.5 50.8333,45.5 51.5,45.5C 55.8635,46.8313 60.1968,46.6646 64.5,45C 62.6183,44.8019 60.9516,44.3019 59.5,43.5C 67.2348,41.3444 75.2348,40.0111 83.5,39.5C 89.1956,40.8863 94.8623,40.7196 100.5,39C 98.2922,38.8091 96.2922,38.3091 94.5,37.5C 97.0545,36.612 99.7212,36.2786 102.5,36.5C 107.71,36.3916 112.71,35.7249 117.5,34.5C 120.287,33.5233 123.287,33.19 126.5,33.5C 132.404,33.6787 138.071,33.0121 143.5,31.5C 154.484,30.7507 165.484,30.4174 176.5,30.5 Z"/></g>
<g><path style="opacity:1" fill="#07aa51" d="M 176.5,30.5 C 182.167,30.5 187.833,30.5 193.5,30.5C 194.609,31.29 195.942,31.79 197.5,32C 189.833,32.6667 182.167,32.6667 174.5,32C 175.416,31.7216 176.082,31.2216 176.5,30.5 Z"/></g>
<g><path style="opacity:1" fill="#68c990" d="M 143.5,31.5 C 138.071,33.0121 132.404,33.6787 126.5,33.5C 131.96,32.2627 137.627,31.596 143.5,31.5 Z"/></g>
<g><path style="opacity:1" fill="#16ad58" d="M 229.5,32.5 C 231.735,32.2053 233.735,32.5386 235.5,33.5C 230.519,34.3316 225.519,34.4983 220.5,34C 223.695,33.8195 226.695,33.3195 229.5,32.5 Z"/></g>
<g><path style="opacity:1" fill="#5fc588" d="M 117.5,34.5 C 112.71,35.7249 107.71,36.3916 102.5,36.5C 107.25,34.9692 112.25,34.3025 117.5,34.5 Z"/></g>
<g><path style="opacity:1" fill="#1dae5a" d="M 246.5,34.5 C 250.387,34.6459 254.054,35.3126 257.5,36.5C 251.825,37.6693 246.158,37.5026 240.5,36C 242.708,35.8091 244.708,35.3091 246.5,34.5 Z"/></g>
<g><path style="opacity:1" fill="#23af5d" d="M 94.5,37.5 C 96.2922,38.3091 98.2922,38.8091 100.5,39C 94.8623,40.7196 89.1956,40.8863 83.5,39.5C 86.9458,38.3126 90.6125,37.6459 94.5,37.5 Z"/></g>
<g><path style="opacity:1" fill="#1faf5c" d="M 59.5,43.5 C 60.9516,44.3019 62.6183,44.8019 64.5,45C 60.1968,46.6646 55.8635,46.8313 51.5,45.5C 53.9608,44.469 56.6275,43.8023 59.5,43.5 Z"/></g>
<g><path style="opacity:1" fill="#27b05e" d="M 49.5,45.5 C 50.9516,46.3019 52.6183,46.8019 54.5,47C 52.1526,47.4361 49.8193,47.9361 47.5,48.5C 45.2178,47.7766 42.8845,47.4433 40.5,47.5C 43.3112,46.525 46.3112,45.8583 49.5,45.5 Z"/></g>
<g><path style="opacity:1" fill="#25b05d" d="M 35.5,48.5 C 36.6085,49.29 37.9419,49.79 39.5,50C 35.8697,51.6636 32.2031,51.8302 28.5,50.5C 30.5145,49.0762 32.8478,48.4095 35.5,48.5 Z"/></g>
<g><path style="opacity:1" fill="#15ac56" d="M 297.5,45.5 C 303.125,46.9278 308.459,48.9278 313.5,51.5C 312.417,51.5394 311.417,51.8728 310.5,52.5C 305.204,50.568 299.871,48.7346 294.5,47C 295.737,46.7679 296.737,46.2679 297.5,45.5 Z"/></g>
<g><path style="opacity:1" fill="#21af5c" d="M 22.5,51.5 C 23.6085,52.29 24.9419,52.79 26.5,53C 23.1667,53.8333 19.8333,54.6667 16.5,55.5C 15.5581,55.3918 14.7247,55.0585 14,54.5C 13.023,56.74 12.523,59.0733 12.5,61.5C 11.5269,59.0521 11.1936,56.3854 11.5,53.5C 15.1359,52.6745 18.8026,52.0078 22.5,51.5 Z"/></g>
<g><path style="opacity:1" fill="#21ad59" d="M 322.5,54.5 C 352.018,66.7071 378.018,84.0404 400.5,106.5C 399.448,106.649 398.448,106.483 397.5,106C 375.494,84.7585 349.827,68.0918 320.5,56C 321.416,55.7216 322.082,55.2216 322.5,54.5 Z"/></g>
<g><path style="opacity:1" fill="#28b05f" d="M 22.5,114.5 C 21.6295,111.997 20.9628,109.33 20.5,106.5C 21.29,105.391 21.79,104.058 22,102.5C 22.3333,103.833 22.6667,105.167 23,106.5C 23.1747,109.157 23.0081,111.824 22.5,114.5 Z"/></g>
<g><path style="opacity:1" fill="#20ae59" d="M 406.5,113.5 C 410.525,116.558 413.858,120.225 416.5,124.5C 415.883,124.611 415.383,124.944 415,125.5C 411.95,121.905 408.784,118.405 405.5,115C 406.056,114.617 406.389,114.117 406.5,113.5 Z"/></g>
<g><path style="opacity:1" fill="#1bad59" d="M 416.5,124.5 C 420.521,129.196 424.188,134.196 427.5,139.5C 426.883,139.611 426.383,139.944 426,140.5C 422.862,135.729 419.362,131.229 415.5,127C 416.252,126.329 416.586,125.496 416.5,124.5 Z"/></g>
<g><path style="opacity:1" fill="#28b05f" d="M 209.5,143.5 C 207.063,143.244 204.729,142.577 202.5,141.5C 201.537,141.97 201.537,142.637 202.5,143.5C 201.078,143.25 200.078,142.417 199.5,141C 203.312,139.051 206.979,139.385 210.5,142C 209.944,142.383 209.611,142.883 209.5,143.5 Z"/></g>
<g><path style="opacity:1" fill="#1dae59" d="M 218.5,147.5 C 215.256,146.537 212.256,145.204 209.5,143.5C 213.377,142.722 217.044,143.555 220.5,146C 219.584,146.278 218.918,146.778 218.5,147.5 Z"/></g>
<g><path style="opacity:1" fill="#20ae5a" d="M 427.5,139.5 C 429.735,142.291 431.735,145.291 433.5,148.5C 432.448,148.649 431.448,148.483 430.5,148C 427.811,145.515 426.811,142.682 427.5,139.5 Z"/></g>
<g><path style="opacity:1" fill="#1bae59" d="M 226.5,150.5 C 223.843,150.065 221.509,149.065 219.5,147.5C 222.342,146.388 225.008,146.888 227.5,149C 226.944,149.383 226.611,149.883 226.5,150.5 Z"/></g>
<g><path style="opacity:1" fill="#24af5c" d="M 235.5,154.5 C 232.088,153.925 229.088,152.592 226.5,150.5C 230.055,149.739 233.388,150.572 236.5,153C 235.944,153.383 235.611,153.883 235.5,154.5 Z"/></g>
<g><path style="opacity:1" fill="#1dae5a" d="M 433.5,149.5 C 435.653,151.794 437.32,154.46 438.5,157.5C 437.603,158.598 436.77,158.598 436,157.5C 435.086,155.336 433.919,153.336 432.5,151.5C 432.863,150.817 433.196,150.15 433.5,149.5 Z"/></g>
<g><path style="opacity:1" fill="#18ad58" d="M 37.5,166.5 C 36.129,164.064 35.129,161.397 34.5,158.5C 35.2679,157.737 35.7679,156.737 36,155.5C 37.9336,159.077 38.4336,162.743 37.5,166.5 Z"/></g>
<g><path style="opacity:1" fill="#19ad58" d="M 439.5,159.5 C 442.405,164.307 445.072,169.307 447.5,174.5C 446.778,174.918 446.278,175.584 446,176.5C 443.628,171.588 441.128,166.755 438.5,162C 439.252,161.329 439.586,160.496 439.5,159.5 Z"/></g>
<g><path style="opacity:1" fill="#24af5c" d="M 448.5,177.5 C 450.008,179.181 451.008,181.181 451.5,183.5C 450.778,183.918 450.278,184.584 450,185.5C 447.888,183.008 447.388,180.342 448.5,177.5 Z"/></g>
<g><path style="opacity:1" fill="#18ad57" d="M 45.5,189.5 C 43.6541,186.46 42.3208,183.127 41.5,179.5C 42.2216,179.082 42.7216,178.416 43,177.5C 45.2505,181.363 46.0838,185.363 45.5,189.5 Z"/></g>
<g><path style="opacity:1" fill="#1fae5a" d="M 48.5,197.5 C 46.9348,195.491 45.9348,193.157 45.5,190.5C 46.2216,190.082 46.7216,189.416 47,188.5C 48.928,191.392 49.428,194.392 48.5,197.5 Z"/></g>
<g><path style="opacity:1" fill="#21af5b" d="M 451.5,184.5 C 453.592,187.088 454.925,190.088 455.5,193.5C 454.778,193.918 454.278,194.584 454,195.5C 452.505,193.89 452.339,192.224 453.5,190.5C 450.832,189.757 450.166,187.757 451.5,184.5 Z"/></g>
<g><path style="opacity:1" fill="#23af5b" d="M 455.5,193.5 C 457.208,196.95 458.541,200.617 459.5,204.5C 458.778,204.918 458.278,205.584 458,206.5C 455.541,202.342 454.707,198.009 455.5,193.5 Z"/></g>
<g><path style="opacity:1" fill="#22af5b" d="M 203.5,143.5 C 254.7,176.129 301.367,214.462 343.5,258.5C 343.103,259.525 342.437,259.692 341.5,259C 298.949,215.754 252.282,177.754 201.5,145C 202.416,144.722 203.082,144.222 203.5,143.5 Z"/></g>
<g><path style="opacity:1" fill="#1cae59" d="M 54.5,212.5 C 52.7962,209.744 51.4629,206.744 50.5,203.5C 51.2216,203.082 51.7216,202.416 52,201.5C 54.1524,205.048 54.9857,208.715 54.5,212.5 Z"/></g>
<g><path style="opacity:1" fill="#2db261" d="M 459.5,204.5 C 461.405,208.216 462.739,212.216 463.5,216.5C 462.732,217.263 462.232,218.263 462,219.5C 459.535,214.657 458.701,209.657 459.5,204.5 Z"/></g>
<g><path style="opacity:1" fill="#1eae5a" d="M 413.5,286.5 C 363.517,229.844 304.183,185.844 235.5,154.5C 236.583,154.461 237.583,154.127 238.5,153.5C 306.444,184.948 365.111,228.781 414.5,285C 413.944,285.383 413.611,285.883 413.5,286.5 Z"/></g>
<g><path style="opacity:1" fill="#34b465" d="M 463.5,216.5 C 465.074,219.907 466.074,223.573 466.5,227.5C 465.732,226.737 465.232,225.737 465,224.5C 464.667,225.167 464.333,225.833 464,226.5C 462.356,223.253 462.189,219.92 463.5,216.5 Z"/></g>
<g><path style="opacity:1" fill="#25af5d" d="M 56.5,218.5 C 60.2907,219.395 61.624,222.062 60.5,226.5C 58.983,223.965 57.6497,221.298 56.5,218.5 Z"/></g>
<g><path style="opacity:1" fill="#21af5b" d="M 65.5,237.5 C 63.8472,234.241 62.1805,230.907 60.5,227.5C 61.2216,227.082 61.7216,226.416 62,225.5C 63.5,228.5 65,231.5 66.5,234.5C 65.8728,235.417 65.5394,236.417 65.5,237.5 Z"/></g>
<g><path style="opacity:1" fill="#29b05f" d="M 468.5,235.5 C 469.768,237.905 470.435,240.572 470.5,243.5C 469.71,244.609 469.21,245.942 469,247.5C 468.667,246.167 468.333,244.833 468,243.5C 467.825,240.843 467.992,238.176 468.5,235.5 Z"/></g>
<g><path style="opacity:1" fill="#21af5b" d="M 79.5,264.5 C 77.2495,261.001 75.2495,257.335 73.5,253.5C 74.397,252.402 75.2303,252.402 76,253.5C 77.3726,256.412 78.8726,259.246 80.5,262C 79.7476,262.671 79.4142,263.504 79.5,264.5 Z"/></g>
<g><path style="opacity:1" fill="#24af5c" d="M 87.5,278.5 C 84.677,274.864 82.3437,270.864 80.5,266.5C 81.1174,266.389 81.6174,266.056 82,265.5C 83.3333,267.5 84.6667,269.5 86,271.5C 87.8501,273.76 88.3501,276.094 87.5,278.5 Z"/></g>
<g><path style="opacity:1" fill="#6fcb94" d="M 474.5,266.5 C 475.657,269.273 476.324,272.273 476.5,275.5C 474.882,272.829 474.215,269.829 474.5,266.5 Z"/></g>
<g><path style="opacity:1" fill="#1eae5a" d="M 344.5,259.5 C 358.98,272.972 371.98,287.639 383.5,303.5C 381.284,302.797 379.451,301.464 378,299.5C 367.742,286.571 356.742,274.238 345,262.5C 344.517,261.552 344.351,260.552 344.5,259.5 Z"/></g>
<g><path style="opacity:1" fill="#1dae5a" d="M 92.5,286.5 C 90.8474,283.869 89.1807,281.203 87.5,278.5C 88.1174,278.389 88.6174,278.056 89,277.5C 91.9696,280.059 93.1363,283.059 92.5,286.5 Z"/></g>
<g><path style="opacity:1" fill="#1fae5a" d="M 102.5,301.5 C 98.9317,296.709 95.5984,291.709 92.5,286.5C 93.397,285.402 94.2303,285.402 95,286.5C 97.7097,290.753 100.543,294.92 103.5,299C 102.748,299.671 102.414,300.504 102.5,301.5 Z"/></g>
<g><path style="opacity:1" fill="#24af5c" d="M 428.5,306.5 C 423.752,300.024 418.752,293.691 413.5,287.5C 414.117,287.389 414.617,287.056 415,286.5C 418.833,291 422.667,295.5 426.5,300C 426.167,300.333 425.833,300.667 425.5,301C 428.698,301.957 429.698,303.791 428.5,306.5 Z"/></g>
<g><path style="opacity:1" fill="#26b05d" d="M 113.5,315.5 C 109.101,311.432 105.435,306.765 102.5,301.5C 103.88,300.294 105.047,300.627 106,302.5C 108.039,306.339 110.872,310.173 114.5,314C 113.944,314.383 113.611,314.883 113.5,315.5 Z"/></g>
<g><path style="opacity:1" fill="#1bae59" d="M 433.5,312.5 C 431.367,310.909 429.701,308.909 428.5,306.5C 429.117,306.389 429.617,306.056 430,305.5C 432.391,307.606 433.558,309.94 433.5,312.5 Z"/></g>
<g><path style="opacity:1" fill="#1eae5a" d="M 387.5,308.5 C 390.295,310.751 392.628,313.418 394.5,316.5C 393.883,316.611 393.383,316.944 393,317.5C 390.715,315.093 388.549,312.593 386.5,310C 387.056,309.617 387.389,309.117 387.5,308.5 Z"/></g>
<g><path style="opacity:1" fill="#1dae59" d="M 445.5,331.5 C 441.513,325.537 437.513,319.537 433.5,313.5C 434.117,313.389 434.617,313.056 435,312.5C 439.203,317.738 443.036,323.238 446.5,329C 445.748,329.671 445.414,330.504 445.5,331.5 Z"/></g>
<g><path style="opacity:1" fill="#19ad58" d="M 397.5,321.5 C 401.548,325.254 404.882,329.587 407.5,334.5C 406.883,334.611 406.383,334.944 406,335.5C 402.955,331.244 399.788,327.077 396.5,323C 397.056,322.617 397.389,322.117 397.5,321.5 Z"/></g>
<g><path style="opacity:1" fill="#1eae5a" d="M 451.5,341.5 C 449.515,338.202 447.515,334.869 445.5,331.5C 446.117,331.389 446.617,331.056 447,330.5C 450.291,333.707 451.791,337.374 451.5,341.5 Z"/></g>
<g><path style="opacity:1" fill="#6ecc97" d="M 478.5,300.5 C 479.979,310.459 480.646,320.626 480.5,331C 480.5,337.675 480.166,344.175 479.5,350.5C 479.599,333.822 479.265,317.155 478.5,300.5 Z"/></g>
<g><path style="opacity:1" fill="#1dae5a" d="M 407.5,334.5 C 411.068,339.291 414.402,344.291 417.5,349.5C 416.603,350.598 415.77,350.598 415,349.5C 412.29,345.247 409.457,341.08 406.5,337C 407.252,336.329 407.586,335.496 407.5,334.5 Z"/></g>
<g><path style="opacity:1" fill="#18ad58" d="M 459.5,355.5 C 457.929,353.365 456.596,351.032 455.5,348.5C 456.397,347.402 457.23,347.402 458,348.5C 459.829,350.733 460.329,353.067 459.5,355.5 Z"/></g>
<g><path style="opacity:1" fill="#1dae5a" d="M 417.5,349.5 C 420.069,352.961 422.403,356.628 424.5,360.5C 423.603,361.598 422.77,361.598 422,360.5C 420.833,358.667 419.667,356.833 418.5,355C 418.833,354.667 419.167,354.333 419.5,354C 416.589,353.302 415.923,351.802 417.5,349.5 Z"/></g>
<g><path style="opacity:1" fill="#20af5b" d="M 424.5,360.5 C 426.083,362.663 427.416,364.996 428.5,367.5C 427.603,368.598 426.77,368.598 426,367.5C 424.15,365.24 423.65,362.906 424.5,360.5 Z"/></g>
<g><path style="opacity:1" fill="#1fae5a" d="M 470.5,378.5 C 468.989,375.995 467.655,373.328 466.5,370.5C 467.222,370.082 467.722,369.416 468,368.5C 470.428,371.612 471.261,374.945 470.5,378.5 Z"/></g>
<g><path style="opacity:1" fill="#1aad58" d="M 474.5,387.5 C 472.657,385.147 471.323,382.48 470.5,379.5C 471.222,379.082 471.722,378.416 472,377.5C 474.431,380.617 475.265,383.95 474.5,387.5 Z"/></g>
<g><path style="opacity:1" fill="#22af5b" d="M 432.5,374.5 C 436.93,381.024 440.597,388.024 443.5,395.5C 442.778,395.918 442.278,396.584 442,397.5C 438.628,390.588 435.128,383.755 431.5,377C 432.252,376.329 432.586,375.496 432.5,374.5 Z"/></g>
<g><path style="opacity:1" fill="#1fae5a" d="M 222.5,403.5 C 178.806,383.814 142.472,354.814 113.5,316.5C 114.117,316.389 114.617,316.056 115,315.5C 144.19,353.701 180.69,382.535 224.5,402C 223.584,402.278 222.918,402.778 222.5,403.5 Z"/></g>
<g><path style="opacity:1" fill="#1eae5b" d="M 444.5,398.5 C 448.753,402.797 448.086,405.464 442.5,406.5C 441.737,405.732 440.737,405.232 439.5,405C 441.246,404.529 442.913,403.862 444.5,403C 443.587,401.586 443.587,400.086 444.5,398.5 Z"/></g>
<g><path style="opacity:1" fill="#21af5c" d="M 247.5,412.5 C 243.216,411.739 239.216,410.405 235.5,408.5C 240.274,407.903 244.941,408.737 249.5,411C 248.584,411.278 247.918,411.778 247.5,412.5 Z"/></g>
<g><path style="opacity:1" fill="#15ad57" d="M 433.5,408.5 C 430.746,409.946 427.746,410.946 424.5,411.5C 423.737,410.732 422.737,410.232 421.5,410C 425.439,408.17 429.439,407.67 433.5,408.5 Z"/></g>
<g><path style="opacity:1" fill="#14ad57" d="M 418.5,412.5 C 416.698,413.458 414.698,414.125 412.5,414.5C 411.391,413.71 410.058,413.21 408.5,413C 411.82,411.493 415.153,411.327 418.5,412.5 Z"/></g>
<g><path style="opacity:1" fill="#24b05d" d="M 405.5,415.5 C 403.485,416.924 401.152,417.59 398.5,417.5C 397.391,416.71 396.058,416.21 394.5,416C 398.148,414.431 401.814,414.264 405.5,415.5 Z"/></g>
<g><path style="opacity:1" fill="#23b05d" d="M 269.5,418.5 C 266.627,418.198 263.961,417.531 261.5,416.5C 263.547,416.489 265.547,416.156 267.5,415.5C 269.5,416 271.5,416.5 273.5,417C 271.942,417.21 270.609,417.71 269.5,418.5 Z"/></g>
<g><path style="opacity:1" fill="#39b669" d="M 278.5,420.5 C 275.273,420.324 272.273,419.657 269.5,418.5C 272.841,417.995 276.174,417.828 279.5,418C 278.5,418.333 277.5,418.667 276.5,419C 277.416,419.278 278.082,419.778 278.5,420.5 Z"/></g>
</svg>
