<?xml version="1.0" standalone="no"?>
<!DOCTYPE svg PUBLIC "-//W3C//DTD SVG 20010904//EN"
 "http://www.w3.org/TR/2001/REC-SVG-20010904/DTD/svg10.dtd">
<svg version="1.0" xmlns="http://www.w3.org/2000/svg"
 width="1280.000000pt" height="1170.000000pt" viewBox="0 0 1280.000000 1170.000000"
 preserveAspectRatio="xMidYMid meet">
<g transform="translate(0.000000,1170.000000) scale(0.100000,-0.100000)"
fill="#000000" stroke="none">
<path d="M12070 11683 c-134 -47 -666 -535 -951 -873 -120 -142 -288 -365
-391 -519 l-70 -104 -172 7 c-381 14 -1645 19 -1996 7 -2460 -81 -4129 -486
-5330 -1294 -399 -268 -783 -631 -1078 -1019 -410 -541 -730 -1216 -977 -2068
-179 -619 -289 -1132 -565 -2650 -211 -1161 -335 -1766 -472 -2300 -33 -129
-62 -257 -65 -285 l-4 -50 143 -33 c441 -102 557 -128 803 -178 774 -157 1523
-256 2215 -294 113 -6 277 -15 365 -20 205 -13 419 -13 615 0 85 5 238 14 340
20 1413 82 2630 454 3620 1105 1576 1037 2548 2755 2879 5090 122 859 152
1894 86 2910 -15 228 -40 528 -54 656 -10 88 -9 90 89 219 332 434 766 793
1255 1038 127 63 310 140 408 172 37 11 37 12 36 63 l0 52 -92 76 c-178 146
-303 220 -448 263 -97 30 -126 31 -189 9z"/>
</g>
</svg>
